<svg width="497" height="208" viewBox="0 0 497 208" fill="none" xmlns="http://www.w3.org/2000/svg">
<path d="M106.992 37.256V88.808C106.672 88.936 106.16 89.064 105.456 89.192C104.816 89.384 104.144 89.48 103.44 89.48C100.624 89.48 99.216 88.296 99.216 85.928V37.256H81.264C81.072 36.936 80.88 36.52 80.688 36.008C80.496 35.432 80.4 34.792 80.4 34.088C80.4 33 80.656 32.168 81.168 31.592C81.68 30.952 82.416 30.632 83.376 30.632H124.944C125.136 30.952 125.328 31.4 125.52 31.976C125.712 32.488 125.808 33.064 125.808 33.704C125.808 34.792 125.552 35.656 125.04 36.296C124.528 36.936 123.792 37.256 122.832 37.256H106.992ZM170.353 66.824C170.353 70.408 169.841 73.64 168.817 76.52C167.793 79.4 166.321 81.864 164.401 83.912C162.545 85.96 160.273 87.528 157.585 88.616C154.897 89.704 151.889 90.248 148.561 90.248C145.233 90.248 142.225 89.704 139.537 88.616C136.849 87.528 134.545 85.96 132.625 83.912C130.705 81.864 129.233 79.4 128.209 76.52C127.185 73.64 126.673 70.408 126.673 66.824C126.673 63.24 127.185 60.008 128.209 57.128C129.297 54.248 130.801 51.784 132.721 49.736C134.641 47.688 136.945 46.12 139.633 45.032C142.321 43.944 145.297 43.4 148.561 43.4C151.825 43.4 154.801 43.944 157.489 45.032C160.177 46.12 162.449 47.688 164.305 49.736C166.225 51.784 167.697 54.248 168.721 57.128C169.809 60.008 170.353 63.24 170.353 66.824ZM148.561 49.736C144.209 49.736 140.785 51.24 138.289 54.248C135.793 57.256 134.545 61.448 134.545 66.824C134.545 72.264 135.761 76.488 138.193 79.496C140.689 82.44 144.145 83.912 148.561 83.912C152.977 83.912 156.401 82.408 158.833 79.4C161.265 76.392 162.481 72.2 162.481 66.824C162.481 61.448 161.233 57.256 158.737 54.248C156.305 51.24 152.913 49.736 148.561 49.736ZM213.527 77.192C213.527 81.288 212.023 84.488 209.015 86.792C206.007 89.096 201.655 90.248 195.959 90.248C193.527 90.248 191.287 90.024 189.239 89.576C187.191 89.192 185.431 88.68 183.959 88.04C182.551 87.336 181.431 86.568 180.599 85.736C179.831 84.84 179.447 83.944 179.447 83.048C179.447 82.28 179.639 81.544 180.023 80.84C180.471 80.136 181.111 79.528 181.943 79.016C183.671 80.296 185.687 81.448 187.991 82.472C190.295 83.432 192.919 83.912 195.863 83.912C202.519 83.912 205.847 81.672 205.847 77.192C205.847 73.544 203.639 71.176 199.223 70.088L191.255 67.976C187.351 66.952 184.503 65.48 182.711 63.56C180.919 61.576 180.023 59.048 180.023 55.976C180.023 54.312 180.343 52.712 180.983 51.176C181.687 49.64 182.743 48.296 184.151 47.144C185.559 45.992 187.287 45.096 189.335 44.456C191.447 43.752 193.911 43.4 196.727 43.4C201.207 43.4 204.823 44.072 207.575 45.416C210.327 46.696 211.703 48.2 211.703 49.928C211.703 50.76 211.479 51.496 211.031 52.136C210.647 52.776 210.103 53.256 209.399 53.576C208.247 52.808 206.615 51.976 204.503 51.08C202.391 50.184 199.895 49.736 197.015 49.736C194.135 49.736 191.831 50.28 190.103 51.368C188.439 52.456 187.607 53.992 187.607 55.976C187.607 57.448 188.087 58.696 189.047 59.72C190.007 60.744 191.607 61.512 193.847 62.024L200.471 63.656C204.823 64.744 208.087 66.376 210.263 68.552C212.439 70.664 213.527 73.544 213.527 77.192ZM233.041 88.808C232.721 88.936 232.241 89.064 231.601 89.192C230.961 89.384 230.257 89.48 229.489 89.48C226.737 89.48 225.361 88.328 225.361 86.024V26.792C225.681 26.664 226.161 26.536 226.801 26.408C227.505 26.216 228.241 26.12 229.009 26.12C231.697 26.12 233.041 27.272 233.041 29.576V46.856C234.577 45.96 236.369 45.16 238.417 44.456C240.529 43.752 242.897 43.4 245.521 43.4C248.209 43.4 250.641 43.752 252.817 44.456C255.057 45.16 256.977 46.248 258.577 47.72C260.177 49.128 261.425 50.952 262.321 53.192C263.217 55.368 263.665 57.928 263.665 60.872V88.808C263.345 88.936 262.833 89.064 262.129 89.192C261.489 89.384 260.817 89.48 260.113 89.48C257.361 89.48 255.985 88.328 255.985 86.024V61.064C255.985 57.224 254.929 54.376 252.817 52.52C250.705 50.664 247.921 49.736 244.465 49.736C242.225 49.736 240.113 50.152 238.129 50.984C236.209 51.752 234.513 52.712 233.041 53.864V88.808ZM319.228 66.824C319.228 70.408 318.716 73.64 317.692 76.52C316.668 79.4 315.196 81.864 313.276 83.912C311.42 85.96 309.148 87.528 306.46 88.616C303.772 89.704 300.764 90.248 297.436 90.248C294.108 90.248 291.1 89.704 288.412 88.616C285.724 87.528 283.42 85.96 281.5 83.912C279.58 81.864 278.108 79.4 277.084 76.52C276.06 73.64 275.548 70.408 275.548 66.824C275.548 63.24 276.06 60.008 277.084 57.128C278.172 54.248 279.676 51.784 281.596 49.736C283.516 47.688 285.82 46.12 288.508 45.032C291.196 43.944 294.172 43.4 297.436 43.4C300.7 43.4 303.676 43.944 306.364 45.032C309.052 46.12 311.324 47.688 313.18 49.736C315.1 51.784 316.572 54.248 317.596 57.128C318.684 60.008 319.228 63.24 319.228 66.824ZM297.436 49.736C293.084 49.736 289.66 51.24 287.164 54.248C284.668 57.256 283.42 61.448 283.42 66.824C283.42 72.264 284.636 76.488 287.068 79.496C289.564 82.44 293.02 83.912 297.436 83.912C301.852 83.912 305.276 82.408 307.708 79.4C310.14 76.392 311.356 72.2 311.356 66.824C311.356 61.448 310.108 57.256 307.612 54.248C305.18 51.24 301.788 49.736 297.436 49.736ZM338.978 88.808C338.658 88.936 338.178 89.064 337.538 89.192C336.898 89.384 336.194 89.48 335.426 89.48C332.674 89.48 331.298 88.328 331.298 86.024V26.792C331.618 26.664 332.098 26.536 332.738 26.408C333.442 26.216 334.178 26.12 334.946 26.12C337.634 26.12 338.978 27.272 338.978 29.576V64.136L360.002 43.784C361.538 43.848 362.722 44.232 363.554 44.936C364.45 45.576 364.898 46.44 364.898 47.528C364.898 48.424 364.61 49.224 364.034 49.928C363.458 50.568 362.69 51.336 361.73 52.232L346.274 65.768L367.682 84.968C367.554 86.376 367.106 87.496 366.338 88.328C365.634 89.16 364.674 89.576 363.458 89.576C362.498 89.576 361.602 89.352 360.77 88.904C360.002 88.392 359.202 87.688 358.37 86.792L338.978 67.304V88.808ZM393.165 84.008C395.853 84.008 398.061 83.752 399.789 83.24C401.581 82.664 402.861 82.12 403.629 81.608V67.688L391.725 68.936C388.397 69.256 385.933 70.024 384.333 71.24C382.733 72.392 381.933 74.12 381.933 76.424C381.933 78.856 382.861 80.744 384.717 82.088C386.573 83.368 389.389 84.008 393.165 84.008ZM393.069 43.4C398.637 43.4 403.053 44.648 406.317 47.144C409.581 49.64 411.213 53.576 411.213 58.952V81.704C411.213 83.112 410.925 84.2 410.349 84.968C409.837 85.672 409.037 86.344 407.949 86.984C406.413 87.88 404.365 88.648 401.805 89.288C399.309 89.992 396.429 90.344 393.165 90.344C387.149 90.344 382.477 89.16 379.149 86.792C375.885 84.424 374.253 81 374.253 76.52C374.253 72.296 375.629 69.128 378.381 67.016C381.133 64.84 385.005 63.496 389.997 62.984L403.629 61.64V58.952C403.629 55.752 402.669 53.416 400.749 51.944C398.829 50.472 396.237 49.736 392.973 49.736C390.285 49.736 387.757 50.12 385.389 50.888C383.021 51.656 380.909 52.52 379.053 53.48C378.541 53.032 378.061 52.52 377.613 51.944C377.229 51.368 377.037 50.728 377.037 50.024C377.037 49.128 377.261 48.392 377.709 47.816C378.157 47.24 378.861 46.696 379.821 46.184C381.549 45.288 383.533 44.616 385.773 44.168C388.013 43.656 390.445 43.4 393.069 43.4ZM455.951 60.104C455.951 56.52 454.927 53.896 452.879 52.232C450.895 50.568 448.207 49.736 444.815 49.736C442.255 49.736 439.983 50.056 437.999 50.696C436.015 51.336 434.319 52.072 432.911 52.904V88.808C432.591 88.936 432.111 89.064 431.471 89.192C430.831 89.384 430.127 89.48 429.359 89.48C426.607 89.48 425.231 88.328 425.231 86.024V53.288C425.231 51.944 425.487 50.856 425.999 50.024C426.575 49.128 427.535 48.264 428.879 47.432C430.543 46.408 432.751 45.48 435.503 44.648C438.255 43.816 441.359 43.4 444.815 43.4C450.639 43.4 455.215 44.712 458.543 47.336C461.935 49.96 463.631 54.088 463.631 59.72V88.808C463.311 88.936 462.799 89.064 462.095 89.192C461.455 89.384 460.783 89.48 460.079 89.48C457.327 89.48 455.951 88.328 455.951 86.024V60.104ZM127.536 141.32C127.536 144.072 126.864 146.632 125.52 149C124.24 151.304 122.064 153.096 118.992 154.376C122.64 155.592 125.36 157.512 127.152 160.136C128.944 162.696 129.84 165.608 129.84 168.872C129.84 174.696 127.728 179.016 123.504 181.832C119.344 184.648 113.392 186.056 105.648 186.056C102.96 186.056 100.336 185.928 97.776 185.672C95.28 185.48 92.88 185.064 90.576 184.424C87.888 183.656 86.544 182.184 86.544 180.008V130.856C86.544 129 87.6 127.784 89.712 127.208C91.888 126.568 94.192 126.152 96.624 125.96C99.056 125.704 101.712 125.576 104.592 125.576C111.824 125.576 117.456 126.856 121.488 129.416C125.52 131.976 127.536 135.944 127.536 141.32ZM94.224 157.832V178.568C95.76 178.888 97.52 179.144 99.504 179.336C101.552 179.528 103.6 179.624 105.648 179.624C110.96 179.624 114.992 178.76 117.744 177.032C120.496 175.24 121.872 172.456 121.872 168.68C121.872 165.352 120.624 162.728 118.128 160.808C115.696 158.824 112.08 157.832 107.28 157.832H94.224ZM94.224 151.496H107.28C111.312 151.496 114.352 150.6 116.4 148.808C118.512 147.016 119.568 144.584 119.568 141.512C119.568 135.176 114.576 132.008 104.592 132.008C102.352 132.008 100.4 132.104 98.736 132.296C97.136 132.424 95.632 132.616 94.224 132.872V151.496ZM150.829 184.808C150.509 184.936 150.029 185.064 149.389 185.192C148.749 185.384 148.045 185.48 147.277 185.48C144.525 185.48 143.149 184.328 143.149 182.024V140.84C143.469 140.712 143.949 140.584 144.589 140.456C145.293 140.264 146.029 140.168 146.797 140.168C149.485 140.168 150.829 141.352 150.829 143.72V184.808ZM141.997 126.632C141.997 125.288 142.445 124.168 143.341 123.272C144.301 122.312 145.517 121.832 146.989 121.832C148.461 121.832 149.645 122.312 150.541 123.272C151.437 124.168 151.885 125.288 151.885 126.632C151.885 127.976 151.437 129.128 150.541 130.088C149.645 130.984 148.461 131.432 146.989 131.432C145.517 131.432 144.301 130.984 143.341 130.088C142.445 129.128 141.997 127.976 141.997 126.632ZM185.601 139.4C188.545 139.4 191.297 139.88 193.857 140.84C196.417 141.8 198.625 143.24 200.481 145.16C202.401 147.08 203.873 149.512 204.897 152.456C205.985 155.4 206.529 158.856 206.529 162.824C206.529 166.856 205.985 170.344 204.897 173.288C203.809 176.232 202.273 178.664 200.289 180.584C198.369 182.504 196.033 183.944 193.281 184.904C190.529 185.8 187.521 186.248 184.257 186.248C181.121 186.248 178.273 185.864 175.713 185.096C173.217 184.392 171.169 183.56 169.569 182.6C168.225 181.768 167.297 180.968 166.785 180.2C166.273 179.368 166.017 178.28 166.017 176.936V122.792C166.337 122.664 166.817 122.536 167.457 122.408C168.161 122.216 168.897 122.12 169.665 122.12C172.353 122.12 173.697 123.272 173.697 125.576V142.76C175.105 141.864 176.769 141.096 178.689 140.456C180.673 139.752 182.977 139.4 185.601 139.4ZM184.449 145.736C182.209 145.736 180.161 146.152 178.305 146.984C176.513 147.752 174.977 148.68 173.697 149.768V176.936C174.657 177.64 176.033 178.312 177.825 178.952C179.681 179.592 181.825 179.912 184.257 179.912C186.433 179.912 188.385 179.592 190.113 178.952C191.905 178.248 193.441 177.192 194.721 175.784C196.001 174.376 196.993 172.616 197.697 170.504C198.401 168.328 198.753 165.768 198.753 162.824C198.753 159.88 198.401 157.32 197.697 155.144C196.993 152.968 196.001 151.208 194.721 149.864C193.441 148.456 191.905 147.432 190.113 146.792C188.385 146.088 186.497 145.736 184.449 145.736ZM226.961 184.808C226.641 184.936 226.161 185.064 225.521 185.192C224.881 185.384 224.177 185.48 223.409 185.48C220.657 185.48 219.281 184.328 219.281 182.024V122.792C219.601 122.664 220.081 122.536 220.721 122.408C221.425 122.216 222.129 122.12 222.833 122.12C225.585 122.12 226.961 123.272 226.961 125.576V184.808ZM250.485 184.808C250.165 184.936 249.685 185.064 249.045 185.192C248.405 185.384 247.701 185.48 246.933 185.48C244.181 185.48 242.805 184.328 242.805 182.024V140.84C243.125 140.712 243.605 140.584 244.245 140.456C244.949 140.264 245.685 140.168 246.453 140.168C249.141 140.168 250.485 141.352 250.485 143.72V184.808ZM241.653 126.632C241.653 125.288 242.101 124.168 242.997 123.272C243.957 122.312 245.173 121.832 246.645 121.832C248.117 121.832 249.301 122.312 250.197 123.272C251.093 124.168 251.541 125.288 251.541 126.632C251.541 127.976 251.093 129.128 250.197 130.088C249.301 130.984 248.117 131.432 246.645 131.432C245.173 131.432 243.957 130.984 242.997 130.088C242.101 129.128 241.653 127.976 241.653 126.632ZM306.665 162.824C306.665 166.408 306.153 169.64 305.129 172.52C304.105 175.4 302.633 177.864 300.713 179.912C298.857 181.96 296.585 183.528 293.897 184.616C291.209 185.704 288.201 186.248 284.873 186.248C281.545 186.248 278.537 185.704 275.849 184.616C273.161 183.528 270.857 181.96 268.937 179.912C267.017 177.864 265.545 175.4 264.521 172.52C263.497 169.64 262.985 166.408 262.985 162.824C262.985 159.24 263.497 156.008 264.521 153.128C265.609 150.248 267.113 147.784 269.033 145.736C270.953 143.688 273.257 142.12 275.945 141.032C278.633 139.944 281.609 139.4 284.873 139.4C288.137 139.4 291.113 139.944 293.801 141.032C296.489 142.12 298.761 143.688 300.617 145.736C302.537 147.784 304.009 150.248 305.033 153.128C306.121 156.008 306.665 159.24 306.665 162.824ZM284.873 145.736C280.521 145.736 277.097 147.24 274.601 150.248C272.105 153.256 270.857 157.448 270.857 162.824C270.857 168.264 272.073 172.488 274.505 175.496C277.001 178.44 280.457 179.912 284.873 179.912C289.289 179.912 292.713 178.408 295.145 175.4C297.577 172.392 298.793 168.2 298.793 162.824C298.793 157.448 297.545 153.256 295.049 150.248C292.617 147.24 289.225 145.736 284.873 145.736ZM333.712 186.248C329.232 186.248 325.584 185.256 322.768 183.272C320.016 181.288 318.64 177.992 318.64 173.384V127.784C318.96 127.656 319.44 127.528 320.08 127.4C320.784 127.208 321.52 127.112 322.288 127.112C324.976 127.112 326.32 128.264 326.32 130.568V141.608H342.064C342.256 141.928 342.448 142.376 342.64 142.952C342.832 143.464 342.928 144.04 342.928 144.68C342.928 146.856 341.968 147.944 340.048 147.944H326.32V172.904C326.32 175.464 327.024 177.288 328.432 178.376C329.904 179.4 331.952 179.912 334.576 179.912C335.664 179.912 336.88 179.72 338.224 179.336C339.568 178.952 340.688 178.504 341.584 177.992C341.968 178.376 342.32 178.856 342.64 179.432C342.96 180.008 343.12 180.68 343.12 181.448C343.12 182.856 342.288 184.008 340.624 184.904C338.96 185.8 336.656 186.248 333.712 186.248ZM358.328 167.336C360.056 175.72 365.56 179.912 374.84 179.912C377.528 179.912 379.96 179.464 382.136 178.568C384.312 177.672 386.04 176.712 387.32 175.688C388.856 176.584 389.624 177.8 389.624 179.336C389.624 180.232 389.208 181.096 388.376 181.928C387.608 182.76 386.52 183.496 385.112 184.136C383.768 184.776 382.168 185.288 380.312 185.672C378.52 186.056 376.568 186.248 374.456 186.248C367.032 186.248 361.144 184.232 356.792 180.2C352.504 176.168 350.36 170.28 350.36 162.536C350.36 158.888 350.872 155.656 351.896 152.84C352.984 149.96 354.456 147.528 356.312 145.544C358.232 143.56 360.504 142.056 363.128 141.032C365.752 139.944 368.6 139.4 371.672 139.4C374.552 139.4 377.208 139.88 379.64 140.84C382.072 141.8 384.152 143.176 385.88 144.968C387.672 146.696 389.048 148.776 390.008 151.208C391.032 153.576 391.544 156.2 391.544 159.08C391.544 160.488 391.224 161.512 390.584 162.152C389.944 162.728 389.048 163.08 387.896 163.208L358.328 167.336ZM371.576 145.64C367.672 145.64 364.44 147.016 361.88 149.768C359.32 152.456 357.976 156.328 357.848 161.384L384.248 157.736C383.928 154.216 382.68 151.336 380.504 149.096C378.392 146.792 375.416 145.64 371.576 145.64ZM423.182 145.832C421.006 145.832 418.99 146.216 417.134 146.984C415.278 147.688 413.678 148.776 412.334 150.248C410.99 151.656 409.934 153.448 409.166 155.624C408.398 157.736 408.014 160.168 408.014 162.92C408.014 168.424 409.39 172.648 412.142 175.592C414.894 178.472 418.574 179.912 423.182 179.912C425.87 179.912 428.11 179.56 429.902 178.856C431.694 178.088 433.294 177.224 434.702 176.264C435.406 176.648 435.982 177.128 436.43 177.704C436.878 178.28 437.102 178.984 437.102 179.816C437.102 180.712 436.75 181.544 436.046 182.312C435.342 183.08 434.35 183.752 433.07 184.328C431.854 184.904 430.382 185.352 428.654 185.672C426.99 186.056 425.166 186.248 423.182 186.248C419.854 186.248 416.782 185.768 413.966 184.808C411.15 183.848 408.718 182.408 406.67 180.488C404.622 178.568 403.022 176.168 401.87 173.288C400.718 170.344 400.142 166.888 400.142 162.92C400.142 159.016 400.75 155.624 401.966 152.744C403.182 149.8 404.814 147.336 406.862 145.352C408.91 143.368 411.31 141.896 414.062 140.936C416.878 139.912 419.854 139.4 422.99 139.4C424.974 139.4 426.798 139.592 428.462 139.976C430.19 140.296 431.662 140.776 432.878 141.416C434.094 142.056 435.022 142.792 435.662 143.624C436.366 144.392 436.718 145.192 436.718 146.024C436.718 146.792 436.494 147.464 436.046 148.04C435.598 148.616 435.022 149.064 434.318 149.384C432.91 148.424 431.374 147.592 429.71 146.888C428.046 146.184 425.87 145.832 423.182 145.832ZM464.696 180.008C467.384 180.008 469.592 179.752 471.32 179.24C473.112 178.664 474.392 178.12 475.16 177.608V163.688L463.256 164.936C459.928 165.256 457.464 166.024 455.864 167.24C454.264 168.392 453.464 170.12 453.464 172.424C453.464 174.856 454.392 176.744 456.248 178.088C458.104 179.368 460.92 180.008 464.696 180.008ZM464.6 139.4C470.168 139.4 474.584 140.648 477.848 143.144C481.112 145.64 482.744 149.576 482.744 154.952V177.704C482.744 179.112 482.456 180.2 481.88 180.968C481.368 181.672 480.568 182.344 479.48 182.984C477.944 183.88 475.896 184.648 473.336 185.288C470.84 185.992 467.96 186.344 464.696 186.344C458.68 186.344 454.008 185.16 450.68 182.792C447.416 180.424 445.784 177 445.784 172.52C445.784 168.296 447.16 165.128 449.912 163.016C452.664 160.84 456.536 159.496 461.528 158.984L475.16 157.64V154.952C475.16 151.752 474.2 149.416 472.28 147.944C470.36 146.472 467.768 145.736 464.504 145.736C461.816 145.736 459.288 146.12 456.92 146.888C454.552 147.656 452.44 148.52 450.584 149.48C450.072 149.032 449.592 148.52 449.144 147.944C448.76 147.368 448.568 146.728 448.568 146.024C448.568 145.128 448.792 144.392 449.24 143.816C449.688 143.24 450.392 142.696 451.352 142.184C453.08 141.288 455.064 140.616 457.304 140.168C459.544 139.656 461.976 139.4 464.6 139.4Z" fill="#FF0000"/>
<rect x="12" y="18" width="61" height="171" rx="18" fill="#FF0000"/>
<rect x="17" y="23" width="50" height="174" rx="18" fill="#ECEBEB"/>
<path d="M23.6367 33.0036L22.5 191.5" stroke="#D1D1D1"/>
<path d="M60.7734 33.0036L59.5 193" stroke="#D1D1D1"/>
<path d="M54.6367 33.0036L53.5 196" stroke="#D1D1D1"/>
<path d="M46.6367 33.0037L45.5 197" stroke="#D1D1D1"/>
<path d="M39.6367 33.0036L38.5 197" stroke="#D1D1D1"/>
<path d="M31.6367 33.0036L30.5 196" stroke="#D1D1D1"/>
<path d="M19.5 32.5H64.5" stroke="#D1D1D1"/>
</svg>
