<svg width="470" height="186" viewBox="0 0 470 186" fill="none" xmlns="http://www.w3.org/2000/svg">
<g id="Frame 1" clip-path="url(#clip0)">
<path id="bookmark" fill-rule="evenodd" clip-rule="evenodd" d="M90 32H9V161H9.13019L49.7035 110.246L90 160.654V32Z" fill="#FF8A00"/>
<path id="logo" d="M116.64 82.096C118.112 75.056 119.52 68.112 120.864 61.264C121.44 58.384 122.016 55.376 122.592 52.24C123.168 49.104 123.712 46.032 124.224 43.024C124.8 39.952 125.28 37.008 125.664 34.192C126.112 31.312 126.496 28.688 126.816 26.32C125.344 26.128 123.84 26.064 122.304 26.128C120.832 26.192 119.36 26 117.888 25.552C117.952 24.528 117.984 23.344 117.984 22C117.984 20.656 118.016 19.312 118.08 17.968C118.144 16.496 118.208 14.928 118.272 13.264C119.936 13.392 121.6 13.488 123.264 13.552C124.928 13.616 126.592 13.648 128.256 13.648C131.52 13.648 134.656 13.584 137.664 13.456C140.736 13.264 143.552 13.072 146.112 12.88C148.736 12.624 151.296 12.336 153.792 12.016L152.736 17.2C152.416 18.672 152.096 20.176 151.776 21.712C151.52 23.248 151.264 24.56 151.008 25.648C149.6 26.032 148.16 26.32 146.688 26.512C145.28 26.64 143.872 26.832 142.464 27.088C142.016 29.264 141.536 31.696 141.024 34.384C140.512 37.008 140 39.76 139.488 42.64C139.04 45.456 138.592 48.336 138.144 51.28C137.696 54.224 137.248 57.04 136.8 59.728C135.776 66.064 134.816 72.624 133.92 79.408L116.64 82.096ZM196.541 30.064C196.541 35.312 195.965 40.272 194.813 44.944C193.725 49.552 192.253 53.808 190.397 57.712C188.541 61.552 186.365 65.008 183.869 68.08C181.437 71.088 178.877 73.68 176.189 75.856C173.501 77.968 170.781 79.6 168.029 80.752C165.277 81.84 162.653 82.384 160.157 82.384C158.045 82.384 156.125 82 154.397 81.232C152.669 80.4 151.165 79.216 149.885 77.68C148.605 76.08 147.581 74.064 146.813 71.632C146.109 69.136 145.757 66.16 145.757 62.704C145.757 59.12 146.205 55.344 147.101 51.376C147.997 47.408 149.213 43.472 150.749 39.568C152.285 35.664 154.173 31.952 156.413 28.432C158.653 24.912 161.117 21.808 163.805 19.12C166.493 16.368 169.373 14.192 172.445 12.592C175.517 10.992 178.717 10.192 182.045 10.192C184.925 10.192 187.293 10.8 189.149 12.016C191.069 13.168 192.541 14.704 193.565 16.624C194.653 18.48 195.421 20.592 195.869 22.96C196.317 25.328 196.541 27.696 196.541 30.064ZM160.061 60.208C160.061 60.912 160.189 61.648 160.445 62.416C160.701 63.184 161.053 63.856 161.501 64.432C161.949 65.008 162.493 65.52 163.133 65.968C163.837 66.352 164.573 66.544 165.341 66.544C168.221 66.544 170.781 65.552 173.021 63.568C175.261 61.584 177.117 59.152 178.589 56.272C180.061 53.392 181.181 50.32 181.949 47.056C182.781 43.792 183.197 40.816 183.197 38.128C183.197 37.36 183.133 36.528 183.005 35.632C182.941 34.736 182.749 33.904 182.429 33.136C182.173 32.368 181.725 31.728 181.085 31.216C180.509 30.64 179.709 30.352 178.685 30.352C176.637 30.352 174.749 30.864 173.021 31.888C171.293 32.912 169.725 34.288 168.317 36.016C166.973 37.68 165.789 39.6 164.765 41.776C163.741 43.888 162.845 46.064 162.077 48.304C161.373 50.48 160.861 52.624 160.541 54.736C160.221 56.848 160.061 58.672 160.061 60.208ZM232.653 58.288C232.653 61.872 231.949 65.136 230.541 68.08C229.197 70.96 227.341 73.456 224.973 75.568C222.669 77.68 219.917 79.312 216.717 80.464C213.581 81.616 210.189 82.192 206.541 82.192C203.981 82.192 201.421 81.52 198.861 80.176C196.301 78.768 193.837 76.56 191.469 73.552L198.573 59.632C199.021 60.464 199.693 61.328 200.589 62.224C201.485 63.056 202.477 63.792 203.565 64.432C204.717 65.072 205.837 65.616 206.925 66.064C208.077 66.448 209.101 66.64 209.997 66.64C210.765 66.64 211.565 66.512 212.397 66.256C213.229 66 213.997 65.616 214.701 65.104C215.405 64.592 215.949 64.016 216.333 63.376C216.781 62.672 217.005 61.872 217.005 60.976C217.005 59.44 216.493 58.032 215.469 56.752C214.509 55.408 213.293 54.16 211.821 53.008C210.349 51.792 208.749 50.576 207.021 49.36C205.293 48.144 203.693 46.864 202.221 45.52C200.813 44.176 199.597 42.672 198.573 41.008C197.549 39.344 197.037 37.488 197.037 35.44C197.037 32.112 198.029 29.008 200.013 26.128C201.997 23.248 204.461 20.784 207.405 18.736C210.413 16.624 213.677 14.96 217.197 13.744C220.717 12.528 224.045 11.92 227.181 11.92C228.909 11.92 230.541 12.144 232.077 12.592C233.613 12.976 234.925 13.648 236.013 14.608C237.165 15.504 238.061 16.656 238.701 18.064C239.405 19.472 239.757 21.232 239.757 23.344C239.757 24.24 239.661 25.136 239.469 26.032C239.341 26.928 239.213 27.888 239.085 28.912L225.165 32.944C225.293 32.432 225.389 31.92 225.453 31.408C225.581 30.896 225.645 30.384 225.645 29.872C225.645 27.952 225.293 26.576 224.589 25.744C223.949 24.848 223.085 24.4 221.997 24.4C221.485 24.4 220.845 24.592 220.077 24.976C219.373 25.36 218.637 25.872 217.869 26.512C217.165 27.088 216.557 27.792 216.045 28.624C215.533 29.456 215.277 30.352 215.277 31.312C215.277 32.848 215.693 34.128 216.525 35.152C217.421 36.176 218.509 37.136 219.789 38.032C221.069 38.928 222.445 39.856 223.917 40.816C225.453 41.712 226.861 42.896 228.141 44.368C229.421 45.84 230.477 47.696 231.309 49.936C232.205 52.112 232.653 54.896 232.653 58.288ZM232.143 82.192C233.935 73.232 235.663 64.496 237.327 55.984C237.967 52.336 238.639 48.56 239.343 44.656C240.047 40.688 240.687 36.784 241.263 32.944C241.903 29.104 242.479 25.392 242.991 21.808C243.567 18.16 244.015 14.864 244.335 11.92C245.807 11.984 247.151 12.08 248.367 12.208C249.647 12.272 250.895 12.336 252.111 12.4C253.327 12.464 254.543 12.528 255.759 12.592C257.039 12.592 258.415 12.592 259.887 12.592C258.799 17.136 257.711 21.68 256.623 26.224C255.599 30.768 254.639 35.344 253.743 39.952L263.247 38.896C264.143 34.352 264.943 29.968 265.647 25.744C266.351 21.456 267.279 17.04 268.431 12.496C269.903 12.24 271.535 12.048 273.327 11.92C275.119 11.728 276.783 11.568 278.319 11.44C279.855 11.312 281.135 11.216 282.159 11.152C283.247 11.024 283.791 10.96 283.791 10.96C282.895 13.84 282.031 17.008 281.199 20.464C280.431 23.856 279.663 27.408 278.895 31.12C278.127 34.768 277.391 38.48 276.687 42.256C275.983 46.032 275.343 49.616 274.767 53.008C273.359 61.136 272.047 69.456 270.831 77.968L255.855 79.696C256.687 75.856 257.423 72.112 258.063 68.464C258.703 65.392 259.343 62.192 259.983 58.864C260.687 55.536 261.231 52.688 261.615 50.32L252.303 51.184C251.855 53.616 251.311 56.432 250.671 59.632C250.095 62.832 249.551 65.872 249.039 68.752C248.335 72.208 247.631 75.664 246.927 79.12L232.143 82.192ZM327.51 30.064C327.51 35.312 326.934 40.272 325.782 44.944C324.694 49.552 323.222 53.808 321.366 57.712C319.51 61.552 317.334 65.008 314.838 68.08C312.406 71.088 309.846 73.68 307.158 75.856C304.47 77.968 301.75 79.6 298.998 80.752C296.246 81.84 293.622 82.384 291.126 82.384C289.014 82.384 287.094 82 285.366 81.232C283.638 80.4 282.134 79.216 280.854 77.68C279.574 76.08 278.55 74.064 277.782 71.632C277.078 69.136 276.726 66.16 276.726 62.704C276.726 59.12 277.174 55.344 278.07 51.376C278.966 47.408 280.182 43.472 281.718 39.568C283.254 35.664 285.142 31.952 287.382 28.432C289.622 24.912 292.086 21.808 294.774 19.12C297.462 16.368 300.342 14.192 303.414 12.592C306.486 10.992 309.686 10.192 313.014 10.192C315.894 10.192 318.262 10.8 320.118 12.016C322.038 13.168 323.51 14.704 324.534 16.624C325.622 18.48 326.39 20.592 326.838 22.96C327.286 25.328 327.51 27.696 327.51 30.064ZM291.03 60.208C291.03 60.912 291.158 61.648 291.414 62.416C291.67 63.184 292.022 63.856 292.47 64.432C292.918 65.008 293.462 65.52 294.102 65.968C294.806 66.352 295.542 66.544 296.31 66.544C299.19 66.544 301.75 65.552 303.99 63.568C306.23 61.584 308.086 59.152 309.558 56.272C311.03 53.392 312.15 50.32 312.918 47.056C313.75 43.792 314.166 40.816 314.166 38.128C314.166 37.36 314.102 36.528 313.974 35.632C313.91 34.736 313.718 33.904 313.398 33.136C313.142 32.368 312.694 31.728 312.054 31.216C311.478 30.64 310.678 30.352 309.654 30.352C307.606 30.352 305.718 30.864 303.99 31.888C302.262 32.912 300.694 34.288 299.286 36.016C297.942 37.68 296.758 39.6 295.734 41.776C294.71 43.888 293.814 46.064 293.046 48.304C292.342 50.48 291.83 52.624 291.51 54.736C291.19 56.848 291.03 58.672 291.03 60.208ZM321.766 82.096C323.686 73.136 325.478 64.432 327.142 55.984C327.782 52.336 328.454 48.56 329.158 44.656C329.862 40.752 330.502 36.88 331.078 33.04C331.718 29.2 332.262 25.488 332.71 21.904C333.222 18.256 333.606 14.96 333.862 12.016C335.334 12.144 336.998 12.272 338.854 12.4C340.71 12.464 342.438 12.56 344.038 12.688C345.958 12.816 347.878 12.88 349.798 12.88C349.734 13.136 349.638 13.616 349.51 14.32C349.382 15.024 349.222 15.888 349.03 16.912C348.838 17.872 348.614 18.96 348.358 20.176C348.166 21.392 347.942 22.608 347.686 23.824C347.174 26.64 346.598 29.808 345.958 33.328L346.534 33.232C347.174 32.208 348.07 30.8 349.222 29.008C350.438 27.152 351.686 25.2 352.966 23.152C354.246 21.104 355.494 19.152 356.71 17.296C357.926 15.376 358.95 13.744 359.782 12.4C362.982 12.144 366.182 11.856 369.382 11.536C372.582 11.216 375.782 10.8 378.982 10.288C375.974 14.32 373.062 18.288 370.246 22.192C369.03 23.856 367.782 25.584 366.502 27.376C365.286 29.168 364.07 30.928 362.854 32.656C361.638 34.384 360.486 36.048 359.398 37.648C358.374 39.248 357.446 40.72 356.614 42.064C358.022 48.528 359.686 54.768 361.606 60.784C363.526 66.8 365.478 72.944 367.462 79.216C365.99 79.152 364.486 79.12 362.95 79.12C361.414 79.056 359.91 79.024 358.438 79.024C356.582 79.024 354.79 79.056 353.062 79.12C351.334 79.12 349.542 79.152 347.686 79.216C347.11 75.056 346.47 70.704 345.766 66.16C345.126 61.552 344.518 57.168 343.942 53.008L342.214 55.024C341.766 56.944 341.254 59.312 340.678 62.128C340.166 64.944 339.654 67.664 339.142 70.288C338.566 73.36 337.958 76.528 337.318 79.792L321.766 82.096ZM400.766 80.08C399.166 80.336 397.406 80.624 395.486 80.944C393.566 81.264 391.838 81.552 390.302 81.808C390.558 79.696 390.814 77.616 391.07 75.568C391.262 73.776 391.422 71.984 391.55 70.192C391.742 68.4 391.902 66.864 392.03 65.584H383.678L379.838 79.408C378.43 79.6 376.766 79.824 374.846 80.08C372.926 80.272 371.134 80.464 369.47 80.656C367.422 80.912 365.405 81.168 363.421 81.424C365.982 72.912 368.51 64.528 371.006 56.272C372.03 52.816 373.086 49.2 374.174 45.424C375.326 41.648 376.446 37.904 377.534 34.192C378.686 30.416 379.774 26.8 380.798 23.344C381.822 19.888 382.718 16.72 383.486 13.84C387.838 13.52 392.254 13.136 396.734 12.688C401.278 12.24 405.694 11.632 409.982 10.864C409.79 12.912 409.566 15.472 409.31 18.544C409.118 21.552 408.926 24.848 408.734 28.432C408.542 32.016 408.35 35.76 408.158 39.664C407.966 43.568 407.774 47.408 407.582 51.184C407.262 60.016 406.91 69.392 406.526 79.312C404.606 79.632 402.686 79.888 400.766 80.08ZM385.982 55.984C386.238 55.984 386.686 55.984 387.326 55.984C388.03 55.92 388.734 55.888 389.438 55.888C390.206 55.824 390.91 55.792 391.55 55.792C392.19 55.728 392.638 55.664 392.894 55.6C392.894 55.216 392.926 54.576 392.99 53.68C393.118 52.72 393.214 51.664 393.278 50.512C393.406 49.296 393.534 47.984 393.661 46.576C393.79 45.168 393.918 43.792 394.046 42.448C394.302 39.184 394.622 35.664 395.006 31.888L395.582 23.536L394.142 23.632L391.934 31.888L385.982 55.984ZM407.449 82.48C409.369 73.264 411.193 64.336 412.921 55.696C413.561 51.984 414.233 48.144 414.937 44.176C415.705 40.208 416.409 36.304 417.049 32.464C417.689 28.56 418.265 24.848 418.777 21.328C419.289 17.744 419.673 14.512 419.929 11.632C420.761 11.696 421.465 11.728 422.041 11.728C422.617 11.728 423.289 11.728 424.057 11.728C424.953 11.728 426.041 11.728 427.321 11.728C428.601 11.664 429.881 11.6 431.161 11.536C432.441 11.472 433.817 11.408 435.289 11.344C436.185 15.824 436.985 20.144 437.689 24.304C438.393 27.952 439.097 31.696 439.801 35.536C440.569 39.376 441.241 42.64 441.817 45.328C442.073 44.048 442.361 42.576 442.681 40.912C443.001 39.184 443.353 37.392 443.737 35.536C444.121 33.68 444.473 31.824 444.793 29.968C445.177 28.048 445.561 26.16 445.945 24.304C446.841 20.144 447.769 15.856 448.729 11.44L460.441 9.99999C458.265 19.792 456.345 29.072 454.681 37.84C453.913 41.616 453.145 45.456 452.377 49.36C451.673 53.2 451.001 56.912 450.361 60.496C449.721 64.016 449.177 67.312 448.729 70.384C448.281 73.392 447.929 75.92 447.673 77.968C447.481 77.968 446.713 78.128 445.369 78.448C444.089 78.704 442.585 79.024 440.857 79.408C439.193 79.792 437.497 80.176 435.769 80.56C434.105 80.944 432.857 81.296 432.025 81.616C431.641 76.496 431.225 71.632 430.777 67.024C430.585 65.04 430.361 63.024 430.105 60.976C429.913 58.864 429.689 56.848 429.433 54.928C429.177 53.008 428.921 51.216 428.665 49.552C428.409 47.888 428.153 46.448 427.897 45.232C427.705 46.448 427.449 47.856 427.129 49.456C426.809 51.056 426.489 52.752 426.169 54.544C425.849 56.336 425.529 58.224 425.209 60.208C424.889 62.128 424.537 63.984 424.153 65.776C423.321 70.064 422.425 74.544 421.465 79.216L407.449 82.48ZM151.392 153.904C151.392 156.528 150.848 158.96 149.76 161.2C148.672 163.44 147.2 165.488 145.344 167.344C143.488 169.136 141.312 170.736 138.816 172.144C136.384 173.488 133.792 174.64 131.04 175.6C128.352 176.496 125.568 177.2 122.688 177.712C119.872 178.16 117.152 178.384 114.528 178.384C112.16 178.384 109.952 178.192 107.904 177.808C110.976 166.608 113.408 155.344 115.2 144.016C117.056 132.624 118.816 121.168 120.48 109.648C123.808 108.944 127.264 108.336 130.848 107.824C134.432 107.248 138.144 106.96 141.984 106.96C143.584 106.96 145.28 107.152 147.072 107.536C148.864 107.92 150.496 108.624 151.968 109.648C153.44 110.672 154.656 112.016 155.616 113.68C156.64 115.344 157.152 117.456 157.152 120.016C157.152 122.448 156.736 124.72 155.904 126.832C155.136 128.944 154.112 130.864 152.832 132.592C151.616 134.32 150.208 135.824 148.608 137.104C147.008 138.32 145.376 139.248 143.712 139.888C144.544 140.336 145.408 140.976 146.304 141.808C147.2 142.64 148.032 143.632 148.8 144.784C149.568 145.872 150.176 147.184 150.624 148.72C151.136 150.256 151.392 151.984 151.392 153.904ZM129.408 143.92C129.152 145.456 128.896 146.832 128.64 148.048C128.448 149.2 128.256 150.32 128.064 151.408C127.872 152.496 127.648 153.648 127.392 154.864C127.2 156.016 126.976 157.392 126.72 158.992C127.936 158.864 129.312 158.64 130.848 158.32C132.384 158 133.856 157.52 135.264 156.88C136.672 156.176 137.856 155.28 138.816 154.192C139.776 153.04 140.256 151.664 140.256 150.064C140.256 148.912 139.936 147.952 139.296 147.184C138.72 146.416 137.952 145.776 136.992 145.264C136.096 144.752 135.104 144.4 134.016 144.208C132.928 143.952 131.904 143.824 130.944 143.824C130.624 143.824 130.336 143.824 130.08 143.824C129.888 143.824 129.664 143.856 129.408 143.92ZM133.728 120.688C133.6 121.392 133.44 122.224 133.248 123.184C133.12 124.144 132.96 125.168 132.768 126.256C132.576 127.28 132.352 128.304 132.096 129.328C131.904 130.352 131.744 131.248 131.616 132.016C133.024 131.76 134.432 131.408 135.84 130.96C137.248 130.512 138.496 130.032 139.584 129.52C140.736 128.944 141.632 128.336 142.272 127.696C142.976 127.056 143.328 126.352 143.328 125.584C143.328 124.624 143.04 123.856 142.464 123.28C141.888 122.64 141.12 122.128 140.16 121.744C139.264 121.36 138.304 121.104 137.28 120.976C136.32 120.784 135.456 120.688 134.688 120.688H133.728ZM165.383 176.08C164.807 176.08 163.655 176.176 161.927 176.368C160.263 176.496 158.535 176.688 156.743 176.944C154.951 177.136 153.319 177.328 151.847 177.52C150.439 177.712 149.671 177.84 149.543 177.904C150.183 175.152 150.823 172.112 151.463 168.784C152.167 165.392 152.871 161.872 153.575 158.224C154.279 154.512 154.951 150.768 155.591 146.992C156.231 143.216 156.839 139.568 157.415 136.048C158.759 127.856 160.103 119.44 161.447 110.8L176.423 108.4C174.951 116.976 173.511 125.392 172.103 133.648C171.527 137.168 170.919 140.816 170.279 144.592C169.703 148.368 169.095 152.112 168.455 155.824C167.879 159.536 167.335 163.152 166.823 166.672C166.311 170.128 165.831 173.264 165.383 176.08ZM211.861 153.904C211.861 156.528 211.317 158.96 210.229 161.2C209.141 163.44 207.669 165.488 205.813 167.344C203.957 169.136 201.781 170.736 199.285 172.144C196.853 173.488 194.261 174.64 191.509 175.6C188.821 176.496 186.037 177.2 183.157 177.712C180.341 178.16 177.621 178.384 174.997 178.384C172.629 178.384 170.421 178.192 168.373 177.808C171.445 166.608 173.877 155.344 175.669 144.016C177.525 132.624 179.285 121.168 180.949 109.648C184.277 108.944 187.733 108.336 191.317 107.824C194.901 107.248 198.613 106.96 202.453 106.96C204.053 106.96 205.749 107.152 207.541 107.536C209.333 107.92 210.965 108.624 212.437 109.648C213.909 110.672 215.125 112.016 216.085 113.68C217.109 115.344 217.621 117.456 217.621 120.016C217.621 122.448 217.205 124.72 216.373 126.832C215.605 128.944 214.581 130.864 213.301 132.592C212.085 134.32 210.677 135.824 209.077 137.104C207.477 138.32 205.845 139.248 204.181 139.888C205.013 140.336 205.877 140.976 206.773 141.808C207.669 142.64 208.501 143.632 209.269 144.784C210.037 145.872 210.645 147.184 211.093 148.72C211.605 150.256 211.861 151.984 211.861 153.904ZM189.877 143.92C189.621 145.456 189.365 146.832 189.109 148.048C188.917 149.2 188.725 150.32 188.533 151.408C188.341 152.496 188.117 153.648 187.861 154.864C187.669 156.016 187.445 157.392 187.189 158.992C188.405 158.864 189.781 158.64 191.317 158.32C192.853 158 194.325 157.52 195.733 156.88C197.141 156.176 198.325 155.28 199.285 154.192C200.245 153.04 200.725 151.664 200.725 150.064C200.725 148.912 200.405 147.952 199.765 147.184C199.189 146.416 198.421 145.776 197.461 145.264C196.565 144.752 195.573 144.4 194.485 144.208C193.397 143.952 192.373 143.824 191.413 143.824C191.093 143.824 190.805 143.824 190.549 143.824C190.357 143.824 190.133 143.856 189.877 143.92ZM194.197 120.688C194.069 121.392 193.909 122.224 193.717 123.184C193.589 124.144 193.429 125.168 193.237 126.256C193.045 127.28 192.821 128.304 192.565 129.328C192.373 130.352 192.213 131.248 192.085 132.016C193.493 131.76 194.901 131.408 196.309 130.96C197.717 130.512 198.965 130.032 200.053 129.52C201.205 128.944 202.101 128.336 202.741 127.696C203.445 127.056 203.797 126.352 203.797 125.584C203.797 124.624 203.509 123.856 202.933 123.28C202.357 122.64 201.589 122.128 200.629 121.744C199.733 121.36 198.773 121.104 197.749 120.976C196.789 120.784 195.925 120.688 195.157 120.688H194.197ZM236.027 174.928C234.043 174.928 231.931 174.992 229.691 175.12C227.515 175.248 225.307 175.44 223.067 175.696C220.827 175.952 218.619 176.304 216.443 176.752C214.331 177.136 212.411 177.616 210.683 178.192C211.067 175.312 211.515 172.112 212.027 168.592C212.539 165.072 213.115 161.424 213.755 157.648C214.459 153.872 215.131 150.064 215.771 146.224C216.475 142.384 217.179 138.704 217.883 135.184C219.483 126.8 221.179 118.256 222.971 109.552L239.771 107.344C238.043 114.768 236.379 122 234.779 129.04C234.075 132.048 233.371 135.184 232.667 138.448C231.963 141.648 231.291 144.784 230.651 147.856C230.011 150.928 229.435 153.904 228.923 156.784C228.411 159.664 227.995 162.224 227.675 164.464C229.275 164.336 230.971 164.272 232.763 164.272C234.619 164.208 236.251 164.176 237.659 164.176C237.723 165.392 237.819 166.608 237.947 167.824C238.075 168.976 238.203 170.032 238.331 170.992C238.523 171.952 238.651 172.816 238.715 173.584C238.843 174.288 238.939 174.768 239.003 175.024C238.491 175.024 237.979 175.024 237.467 175.024C237.019 174.96 236.539 174.928 236.027 174.928ZM254.82 176.08C254.244 176.08 253.092 176.176 251.364 176.368C249.7 176.496 247.972 176.688 246.18 176.944C244.388 177.136 242.756 177.328 241.284 177.52C239.876 177.712 239.108 177.84 238.98 177.904C239.62 175.152 240.26 172.112 240.9 168.784C241.604 165.392 242.308 161.872 243.012 158.224C243.716 154.512 244.388 150.768 245.028 146.992C245.668 143.216 246.276 139.568 246.852 136.048C248.196 127.856 249.54 119.44 250.884 110.8L265.86 108.4C264.388 116.976 262.948 125.392 261.54 133.648C260.964 137.168 260.356 140.816 259.716 144.592C259.14 148.368 258.532 152.112 257.892 155.824C257.316 159.536 256.772 163.152 256.26 166.672C255.748 170.128 255.268 173.264 254.82 176.08ZM311.666 126.064C311.666 131.312 311.09 136.272 309.938 140.944C308.85 145.552 307.378 149.808 305.522 153.712C303.666 157.552 301.49 161.008 298.994 164.08C296.562 167.088 294.002 169.68 291.314 171.856C288.626 173.968 285.906 175.6 283.154 176.752C280.402 177.84 277.778 178.384 275.282 178.384C273.17 178.384 271.25 178 269.522 177.232C267.794 176.4 266.29 175.216 265.01 173.68C263.73 172.08 262.706 170.064 261.938 167.632C261.234 165.136 260.882 162.16 260.882 158.704C260.882 155.12 261.33 151.344 262.226 147.376C263.122 143.408 264.338 139.472 265.874 135.568C267.41 131.664 269.298 127.952 271.538 124.432C273.778 120.912 276.242 117.808 278.93 115.12C281.618 112.368 284.498 110.192 287.57 108.592C290.642 106.992 293.842 106.192 297.17 106.192C300.05 106.192 302.418 106.8 304.274 108.016C306.194 109.168 307.666 110.704 308.69 112.624C309.778 114.48 310.546 116.592 310.994 118.96C311.442 121.328 311.666 123.696 311.666 126.064ZM275.186 156.208C275.186 156.912 275.314 157.648 275.57 158.416C275.826 159.184 276.178 159.856 276.626 160.432C277.074 161.008 277.618 161.52 278.258 161.968C278.962 162.352 279.698 162.544 280.466 162.544C283.346 162.544 285.906 161.552 288.146 159.568C290.386 157.584 292.242 155.152 293.714 152.272C295.186 149.392 296.306 146.32 297.074 143.056C297.906 139.792 298.322 136.816 298.322 134.128C298.322 133.36 298.258 132.528 298.13 131.632C298.066 130.736 297.874 129.904 297.554 129.136C297.298 128.368 296.85 127.728 296.21 127.216C295.634 126.64 294.834 126.352 293.81 126.352C291.762 126.352 289.874 126.864 288.146 127.888C286.418 128.912 284.85 130.288 283.442 132.016C282.098 133.68 280.914 135.6 279.89 137.776C278.866 139.888 277.97 142.064 277.202 144.304C276.498 146.48 275.986 148.624 275.666 150.736C275.346 152.848 275.186 154.672 275.186 156.208ZM313.89 178.096C315.362 171.056 316.77 164.112 318.114 157.264C318.69 154.384 319.266 151.376 319.842 148.24C320.418 145.104 320.962 142.032 321.474 139.024C322.05 135.952 322.53 133.008 322.914 130.192C323.362 127.312 323.746 124.688 324.066 122.32C322.594 122.128 321.09 122.064 319.554 122.128C318.082 122.192 316.61 122 315.138 121.552C315.202 120.528 315.234 119.344 315.234 118C315.234 116.656 315.266 115.312 315.33 113.968C315.394 112.496 315.458 110.928 315.522 109.264C317.186 109.392 318.85 109.488 320.514 109.552C322.178 109.616 323.842 109.648 325.506 109.648C328.77 109.648 331.906 109.584 334.914 109.456C337.986 109.264 340.802 109.072 343.362 108.88C345.986 108.624 348.546 108.336 351.042 108.016L349.986 113.2C349.666 114.672 349.346 116.176 349.026 117.712C348.77 119.248 348.514 120.56 348.258 121.648C346.85 122.032 345.41 122.32 343.938 122.512C342.53 122.64 341.122 122.832 339.714 123.088C339.266 125.264 338.786 127.696 338.274 130.384C337.762 133.008 337.25 135.76 336.738 138.64C336.29 141.456 335.842 144.336 335.394 147.28C334.946 150.224 334.498 153.04 334.05 155.728C333.026 162.064 332.066 168.624 331.17 175.408L313.89 178.096ZM340.799 178.096L353.375 109.84L383.711 107.248C383.263 108.656 382.879 110.096 382.559 111.568C382.239 112.784 381.919 114.064 381.599 115.408C381.343 116.688 381.119 117.84 380.927 118.864C380.287 118.928 379.359 118.992 378.143 119.056C376.991 119.056 375.743 119.088 374.399 119.152C373.055 119.152 371.679 119.152 370.271 119.152C368.927 119.152 367.743 119.152 366.719 119.152L363.359 136.336C365.343 136.208 367.199 136.112 368.927 136.048C370.335 135.984 371.775 135.952 373.247 135.952C374.719 135.952 375.807 135.92 376.511 135.856C376.255 137.648 375.999 139.408 375.743 141.136C375.551 142.864 375.295 144.624 374.975 146.416C374.335 146.48 373.279 146.544 371.807 146.608C370.399 146.608 368.959 146.64 367.487 146.704C365.823 146.768 363.999 146.832 362.015 146.896L358.751 164.56L372.767 162.352L371.807 173.296L340.799 178.096ZM413.742 157.36C412.206 160.88 410.478 163.952 408.558 166.576C406.702 169.136 404.718 171.312 402.606 173.104C400.558 174.832 398.478 176.112 396.366 176.944C394.254 177.776 392.206 178.192 390.222 178.192C388.238 178.192 386.414 177.744 384.75 176.848C383.15 175.952 381.742 174.608 380.526 172.816C379.31 171.024 378.318 168.816 377.55 166.192C376.846 163.568 376.494 160.496 376.494 156.976C376.494 150.96 377.326 145.04 378.99 139.216C380.654 133.328 382.99 128.048 385.998 123.376C389.006 118.704 392.558 114.96 396.654 112.144C400.814 109.264 405.39 107.824 410.382 107.824C411.918 107.824 413.39 108.144 414.798 108.784C416.206 109.424 417.422 110.32 418.446 111.472C419.47 112.624 420.27 114.032 420.846 115.696C421.486 117.36 421.806 119.216 421.806 121.264C421.806 121.648 421.806 122.064 421.806 122.512C421.806 122.896 421.774 123.312 421.71 123.76L409.134 127.12C408.366 125.52 407.47 124.72 406.446 124.72C405.422 124.72 404.334 125.328 403.182 126.544C402.094 127.696 401.006 129.232 399.918 131.152C398.83 133.008 397.774 135.12 396.75 137.488C395.726 139.792 394.83 142.128 394.062 144.496C393.294 146.864 392.654 149.136 392.142 151.312C391.694 153.424 391.47 155.152 391.47 156.496C391.47 158.544 391.726 159.984 392.238 160.816C392.814 161.648 393.55 162.064 394.446 162.064C395.15 162.064 395.95 161.808 396.846 161.296C397.742 160.72 398.574 160.016 399.342 159.184C400.11 158.288 400.814 157.296 401.454 156.208C402.094 155.12 402.542 154.032 402.798 152.944L413.742 157.36ZM447.828 176.08C446.228 176.336 444.468 176.624 442.548 176.944C440.628 177.264 438.9 177.552 437.364 177.808C437.62 175.696 437.876 173.616 438.132 171.568C438.324 169.776 438.484 167.984 438.612 166.192C438.804 164.4 438.964 162.864 439.092 161.584H430.74L426.9 175.408C425.492 175.6 423.828 175.824 421.908 176.08C419.988 176.272 418.196 176.464 416.532 176.656C414.484 176.912 412.468 177.168 410.484 177.424C413.044 168.912 415.572 160.528 418.068 152.272C419.092 148.816 420.148 145.2 421.236 141.424C422.388 137.648 423.508 133.904 424.596 130.192C425.748 126.416 426.836 122.8 427.86 119.344C428.884 115.888 429.78 112.72 430.548 109.84C434.9 109.52 439.316 109.136 443.796 108.688C448.34 108.24 452.756 107.632 457.044 106.864C456.852 108.912 456.628 111.472 456.372 114.544C456.18 117.552 455.988 120.848 455.796 124.432C455.604 128.016 455.412 131.76 455.22 135.664C455.028 139.568 454.836 143.408 454.644 147.184C454.324 156.016 453.972 165.392 453.588 175.312C451.668 175.632 449.748 175.888 447.828 176.08ZM433.044 151.984C433.3 151.984 433.748 151.984 434.388 151.984C435.092 151.92 435.796 151.888 436.5 151.888C437.268 151.824 437.972 151.792 438.612 151.792C439.252 151.728 439.7 151.664 439.956 151.6C439.956 151.216 439.988 150.576 440.052 149.68C440.18 148.72 440.276 147.664 440.34 146.512C440.468 145.296 440.596 143.984 440.724 142.576C440.852 141.168 440.98 139.792 441.108 138.448C441.364 135.184 441.684 131.664 442.068 127.888L442.644 119.536L441.204 119.632L438.996 127.888L433.044 151.984Z" fill="black"/>
</g>
<defs>
<clipPath id="clip0">
<rect width="470" height="186" fill="white"/>
</clipPath>
</defs>
</svg>
